<svg xmlns="http://www.w3.org/2000/svg" viewBox="0 0 900 900" width="900" height="900" font-family="sans-serif"><defs><path id="arc0" d="M237.64 364.31 A229 229 0 0 1 335.53 251.67" fill="none"/><path id="arc1" d="M225.64 495.85 A229 229 0 0 1 228.26 392.79" fill="none"/><path id="arc2" d="M366.36 663.18 A229 229 0 0 0 470.28 678.10" fill="none"/><path id="arc3" d="M618.44 605.15 A229 229 0 0 0 674.91 493.08" fill="none"/></defs><rect width="900" height="900" fill="#ffffff"/><circle cx="450" cy="450" r="270.00" fill="none" stroke="#2b2f36" stroke-width="2.5"/><circle cx="450" cy="450" r="266.00" fill="none" stroke="#2b2f36" stroke-width="1"/><line x1="450.00" y1="184.00" x2="450.00" y2="192.00" stroke="#9aa0a6" stroke-width="1"/><text x="450.00" y="202.00" font-size="10" fill="#9aa0a6" text-anchor="middle" dominant-baseline="middle" font-family="monospace">0</text><line x1="635.35" y1="259.21" x2="629.78" y2="264.95" stroke="#9aa0a6" stroke-width="1"/><text x="622.81" y="272.12" font-size="10" fill="#9aa0a6" text-anchor="middle" dominant-baseline="middle" font-family="monospace">1000</text><line x1="715.89" y1="442.31" x2="707.89" y2="442.54" stroke="#9aa0a6" stroke-width="1"/><text x="697.90" y="442.83" font-size="10" fill="#9aa0a6" text-anchor="middle" dominant-baseline="middle" font-family="monospace">2000</text><line x1="646.07" y1="629.76" x2="640.17" y2="624.35" stroke="#9aa0a6" stroke-width="1"/><text x="632.80" y="617.60" font-size="10" fill="#9aa0a6" text-anchor="middle" dominant-baseline="middle" font-family="monospace">3000</text><line x1="465.37" y1="715.56" x2="464.91" y2="707.57" stroke="#9aa0a6" stroke-width="1"/><text x="464.33" y="697.59" font-size="10" fill="#9aa0a6" text-anchor="middle" dominant-baseline="middle" font-family="monospace">4000</text><line x1="275.98" y1="651.18" x2="281.22" y2="645.13" stroke="#9aa0a6" stroke-width="1"/><text x="287.76" y="637.57" font-size="10" fill="#9aa0a6" text-anchor="middle" dominant-baseline="middle" font-family="monospace">5000</text><line x1="185.00" y1="473.04" x2="192.97" y2="472.35" stroke="#9aa0a6" stroke-width="1"/><text x="202.93" y="471.48" font-size="10" fill="#9aa0a6" text-anchor="middle" dominant-baseline="middle" font-family="monospace">6000</text><line x1="243.87" y1="281.87" x2="250.07" y2="286.93" stroke="#9aa0a6" stroke-width="1"/><text x="257.82" y="293.25" font-size="10" fill="#9aa0a6" text-anchor="middle" dominant-baseline="middle" font-family="monospace">7000</text><line x1="419.31" y1="185.78" x2="420.23" y2="193.72" stroke="#9aa0a6" stroke-width="1"/><text x="421.38" y="203.66" font-size="10" fill="#9aa0a6" text-anchor="middle" dominant-baseline="middle" font-family="monospace">8000</text><path class="feature" data-fi="0" data-name="IR/DR right" data-type="misc_feature" data-start="5122" data-end="5350" data-strand="-1" d="M261.24 601.44 A242 242 0 0 1 248.62 584.21 L270.26 569.79 A216 216 0 0 0 281.52 585.17 L284.71 608.49 Z" fill="hsl(247, 55%, 72%)" stroke="hsl(247, 48%, 45%)" stroke-width="1" stroke-linejoin="round"><title>IR/DR right (5122–5350)</title></path><path class="feature" data-fi="1" data-name="IR/DR left" data-type="misc_feature" data-start="119" data-end="347" data-strand="1" d="M471.98 209.00 A242 242 0 0 1 493.15 211.88 L510.53 229.15 L488.51 237.46 A216 216 0 0 0 469.62 234.89 Z" fill="hsl(122, 55%, 72%)" stroke="hsl(122, 48%, 45%)" stroke-width="1" stroke-linejoin="round"><title>IR/DR left (119–347)</title></path><path class="feature" data-fi="2" data-name="AmpR" data-type="CDS" data-start="6611" data-end="7471" data-strand="-1" d="M238.29 332.77 A242 242 0 0 1 329.03 240.41 L342.02 262.92 A216 216 0 0 0 261.04 345.36 L237.64 364.31 Z" fill="hsl(0, 62%, 68%)" stroke="hsl(0, 55%, 42%)" stroke-width="1" stroke-linejoin="round"><title>AmpR (6611–7471)</title></path><text font-size="11" fill="hsl(0, 55%, 42%)" font-family="sans-serif" font-weight="600" dominant-baseline="central"><textPath href="#arc0" startOffset="50%" text-anchor="middle">AmpR</textPath></text><path class="feature" data-fi="3" data-name="ori" data-type="rep_origin" data-start="5852" data-end="6440" data-strand="-1" d="M208.76 469.20 A242 242 0 0 1 215.67 389.55 L240.85 396.04 A216 216 0 0 0 234.68 467.14 L225.64 495.85 Z" fill="#c9ccd1" stroke="#7c8087" stroke-width="1" stroke-linejoin="round"><title>ori (5852–6440)</title></path><text font-size="11" fill="#7c8087" font-family="sans-serif" font-weight="600" dominant-baseline="central"><textPath href="#arc1" startOffset="50%" text-anchor="middle">ori</textPath></text><path class="feature" data-fi="4" data-name="f1 ori" data-type="rep_origin" data-start="7603" data-end="8058" data-strand="1" d="M350.77 229.28 A242 242 0 0 1 403.56 212.50 L433.77 221.58 L408.55 238.01 A216 216 0 0 0 361.44 252.99 Z" fill="#c9ccd1" stroke="#7c8087" stroke-width="1" stroke-linejoin="round"><title>f1 ori (7603–8058)</title></path><path class="feature" data-fi="5" data-name="AmpR promoter" data-type="promoter" data-start="7472" data-end="7576" data-strand="-1" d="M337.61 235.68 A242 242 0 0 1 346.37 231.31 L357.50 254.81 A216 216 0 0 0 349.68 258.71 L335.53 251.67 Z" fill="hsl(0, 62%, 68%)" stroke="hsl(0, 55%, 42%)" stroke-width="1" stroke-linejoin="round"><title>AmpR promoter (7472–7576)</title></path><path class="feature" data-fi="6" data-name="lac promoter" data-type="promoter" data-start="5498" data-end="5528" data-strand="-1" d="M233.43 557.99 A242 242 0 0 1 232.16 555.40 L255.56 544.07 A216 216 0 0 0 256.70 546.39 L246.30 554.63 Z" fill="hsl(130, 62%, 68%)" stroke="hsl(130, 55%, 42%)" stroke-width="1" stroke-linejoin="round"><title>lac promoter (5498–5528)</title></path><path class="feature" data-fi="7" data-name="CAP binding site" data-type="protein_bind" data-start="5543" data-end="5564" data-strand="1" d="M231.03 553.04 A242 242 0 0 1 230.17 551.18 L241.17 543.98 L253.78 540.31 A216 216 0 0 0 254.56 541.97 Z" fill="hsl(177, 55%, 72%)" stroke="hsl(177, 48%, 45%)" stroke-width="1" stroke-linejoin="round"><title>CAP binding site (5543–5564)</title></path><path class="feature" data-fi="8" data-name="T7 promoter" data-type="promoter" data-start="75" data-end="93" data-strand="1" d="M463.80 208.39 A242 242 0 0 1 465.57 208.50 L466.40 221.59 L463.90 234.45 A216 216 0 0 0 462.32 234.35 Z" fill="hsl(130, 62%, 68%)" stroke="hsl(130, 55%, 42%)" stroke-width="1" stroke-linejoin="round"><title>T7 promoter (75–93)</title></path><path class="feature" data-fi="9" data-name="T3 promoter" data-type="promoter" data-start="5411" data-end="5429" data-strand="-1" d="M241.72 573.23 A242 242 0 0 1 240.83 571.70 L263.30 558.62 A216 216 0 0 0 264.10 559.99 L253.77 568.05 Z" fill="hsl(130, 62%, 68%)" stroke="hsl(130, 55%, 42%)" stroke-width="1" stroke-linejoin="round"><title>T3 promoter (5411–5429)</title></path><path class="feature" data-fi="10" data-name="M13 fwd" data-type="primer_bind" data-start="49" data-end="65" data-strand="1" d="M458.95 208.17 A242 242 0 0 1 460.54 208.23 L461.47 221.29 L459.41 234.20 A216 216 0 0 0 457.99 234.15 Z" fill="hsl(45, 62%, 68%)" stroke="hsl(45, 55%, 42%)" stroke-width="1" stroke-linejoin="round"><title>M13 fwd (49–65)</title></path><path class="feature" data-fi="11" data-name="M13 rev" data-type="primer_bind" data-start="5450" data-end="5466" data-strand="-1" d="M238.20 567.07 A242 242 0 0 1 237.44 565.68 L260.28 553.26 A216 216 0 0 0 260.96 554.50 L250.31 562.10 Z" fill="hsl(45, 62%, 68%)" stroke="hsl(45, 55%, 42%)" stroke-width="1" stroke-linejoin="round"><title>M13 rev (5450–5466)</title></path><path class="feature" data-fi="12" data-name="lac operator" data-type="protein_bind" data-start="5474" data-end="5490" data-strand="1" d="M236.82 564.54 A242 242 0 0 1 236.07 563.14 L246.87 555.73 L259.06 550.98 A216 216 0 0 0 259.72 552.23 Z" fill="hsl(130, 62%, 68%)" stroke="hsl(130, 55%, 42%)" stroke-width="1" stroke-linejoin="round"><title>lac operator (5474–5490)</title></path><path class="feature" data-fi="13" data-name="SV40 poly(A) signal" data-type="polyA_signal" data-start="4773" data-end="4907" data-strand="1" d="M326.13 657.89 A242 242 0 0 1 315.48 651.17 L312.98 633.48 L329.94 629.56 A216 216 0 0 0 339.44 635.56 Z" fill="hsl(130, 62%, 68%)" stroke="hsl(130, 55%, 42%)" stroke-width="1" stroke-linejoin="round"><title>SV40 poly(A) signal (4773–4907)</title></path><path class="feature" data-fi="14" data-name="SV40 ori" data-type="rep_origin" data-start="3802" data-end="3937" data-strand="1" d="M494.45 657.29 A212 212 0 0 1 483.53 659.33 L471.13 647.87 L479.42 633.66 A186 186 0 0 0 489.00 631.87 Z" fill="#c9ccd1" stroke="#7c8087" stroke-width="1" stroke-linejoin="round"><title>SV40 ori (3802–3937)</title></path><path class="feature" data-fi="15" data-name="SV40 promoter" data-type="promoter" data-start="3621" data-end="3951" data-strand="1" d="M533.16 677.26 A242 242 0 0 1 502.28 686.28 L471.86 677.95 L496.67 660.90 A216 216 0 0 0 524.22 652.85 Z" fill="hsl(130, 62%, 68%)" stroke="hsl(130, 55%, 42%)" stroke-width="1" stroke-linejoin="round"><title>SV40 promoter (3621–3951)</title></path><path class="feature" data-fi="16" data-name="PuroR" data-type="CDS" data-start="3961" data-end="4560" data-strand="1" d="M471.43 691.05 A242 242 0 0 1 389.72 684.37 L366.36 663.18 L396.20 659.19 A216 216 0 0 0 469.13 665.15 Z" fill="hsl(12, 62%, 68%)" stroke="hsl(12, 55%, 42%)" stroke-width="1" stroke-linejoin="round"><title>PuroR (3961–4560)</title></path><text font-size="11" fill="hsl(12, 55%, 42%)" font-family="sans-serif" font-weight="600" dominant-baseline="central"><textPath href="#arc2" startOffset="50%" text-anchor="middle">PuroR</textPath></text><path class="feature" data-fi="17" data-name="CMV enhancer" data-type="enhancer" data-start="509" data-end="888" data-strand="1" d="M542.37 226.32 A242 242 0 0 1 579.04 245.28 L594.81 272.60 L565.18 267.27 A216 216 0 0 0 532.45 250.35 Z" fill="hsl(130, 62%, 68%)" stroke="hsl(130, 55%, 42%)" stroke-width="1" stroke-linejoin="round"><title>CMV enhancer (509–888)</title></path><path class="feature" data-fi="18" data-name="chicken β-actin promoter" data-type="promoter" data-start="891" data-end="1166" data-strand="1" d="M603.32 262.77 A242 242 0 0 1 622.34 280.10 L629.23 307.46 L603.82 298.36 A216 216 0 0 0 586.85 282.88 Z" fill="hsl(130, 62%, 68%)" stroke="hsl(130, 55%, 42%)" stroke-width="1" stroke-linejoin="round"><title>chicken β-actin promoter (891–1166)</title></path><path class="feature" data-fi="19" data-name="β-globin poly(A) signal" data-type="polyA_site" data-start="3169" data-end="3224" data-strand="1" d="M605.76 635.21 A242 242 0 0 1 601.73 638.53 L589.69 631.46 L585.43 618.27 A216 216 0 0 0 589.03 615.31 Z" fill="hsl(275, 62%, 68%)" stroke="hsl(275, 55%, 42%)" stroke-width="1" stroke-linejoin="round"><title>β-globin poly(A) signal (3169–3224)</title></path><path class="feature" data-fi="20" data-name="lacZα" data-type="CDS" data-start="480" data-end="506" data-strand="-1" d="M539.69 225.24 A242 242 0 0 1 542.03 226.18 L532.14 250.23 A216 216 0 0 0 530.06 249.38 L532.66 236.44 Z" fill="hsl(130, 62%, 68%)" stroke="hsl(130, 55%, 42%)" stroke-width="1" stroke-linejoin="round"><title>lacZα (480–506)</title></path><path class="feature" data-fi="21" data-name="lacZα" data-type="CDS" data-start="3566" data-end="3577" data-strand="-1" d="M541.68 673.96 A242 242 0 0 1 540.65 674.38 L530.91 650.28 A216 216 0 0 0 531.83 649.90 L537.74 661.53 Z" fill="hsl(130, 62%, 68%)" stroke="hsl(130, 55%, 42%)" stroke-width="1" stroke-linejoin="round"><title>lacZα (3566–3577)</title></path><path class="feature" data-fi="22" data-name="KS primer" data-type="primer_bind" data-start="502" data-end="506" data-strand="1" d="M518.56 281.41 A182 182 0 0 1 518.89 281.54 L514.27 293.70 L509.05 305.61 A156 156 0 0 0 508.77 305.49 Z" fill="hsl(45, 62%, 68%)" stroke="hsl(45, 55%, 42%)" stroke-width="1" stroke-linejoin="round"><title>KS primer (502–506)</title></path><path class="feature" data-fi="23" data-name="MCS" data-type="misc_feature" data-start="485" data-end="506" data-strand="1" d="M527.28 252.59 A212 212 0 0 1 528.95 253.25 L525.68 265.95 L519.27 277.38 A186 186 0 0 0 517.80 276.80 Z" fill="hsl(78, 55%, 72%)" stroke="hsl(78, 48%, 45%)" stroke-width="1" stroke-linejoin="round"><title>MCS (485–506)</title></path><path class="feature" data-fi="24" data-name="MCS" data-type="misc_feature" data-start="3566" data-end="3577" data-strand="1" d="M531.22 645.82 A212 212 0 0 1 530.32 646.20 L524.54 634.51 L520.47 622.14 A186 186 0 0 0 521.26 621.81 Z" fill="hsl(78, 55%, 72%)" stroke="hsl(78, 48%, 45%)" stroke-width="1" stroke-linejoin="round"><title>MCS (3566–3577)</title></path><path class="feature" data-fi="25" data-name="MCS" data-type="misc_feature" data-start="2269" data-end="2272" data-strand="1" d="M688.19 492.78 A242 242 0 0 1 688.12 493.15 L675.27 491.17 L662.54 488.51 A216 216 0 0 0 662.60 488.18 Z" fill="hsl(78, 55%, 72%)" stroke="hsl(78, 48%, 45%)" stroke-width="1" stroke-linejoin="round"><title>MCS (2269–2272)</title></path><path class="feature" data-fi="26" data-name="EGFP" data-type="CDS" data-start="2284" data-end="3003" data-strand="1" d="M687.68 495.53 A242 242 0 0 1 646.65 591.04 L618.44 605.15 L625.52 575.89 A216 216 0 0 0 662.14 490.64 Z" fill="hsl(200, 62%, 68%)" stroke="hsl(200, 55%, 42%)" stroke-width="1" stroke-linejoin="round"><title>EGFP (2284–3003)</title></path><text font-size="11" fill="hsl(200, 55%, 42%)" font-family="sans-serif" font-weight="600" dominant-baseline="central"><textPath href="#arc3" startOffset="50%" text-anchor="middle">EGFP</textPath></text><line x1="646.98" y1="631.72" x2="655.80" y2="639.86" stroke="#5f6368" stroke-width="1"/><line x1="554.58" y1="696.75" x2="559.27" y2="707.80" stroke="#5f6368" stroke-width="1"/><line x1="470.85" y1="182.81" x2="471.78" y2="170.85" stroke="#5f6368" stroke-width="1"/><line x1="554.96" y1="203.41" x2="559.66" y2="192.37" stroke="#5f6368" stroke-width="1"/><line x1="633.01" y1="645.79" x2="641.20" y2="654.55" stroke="#5f6368" stroke-width="1"/><polyline points="471.78,170.85 744.80,170.85 750.80,170.85" fill="none" stroke="#c0c4c9" stroke-width="0.8"/><text x="750.80" y="173.85" font-size="11" fill="#3c4043" text-anchor="start" font-family="sans-serif">SacI (102)</text><polyline points="559.66,192.37 744.80,192.37 750.80,192.37" fill="none" stroke="#c0c4c9" stroke-width="0.8"/><text x="750.80" y="195.37" font-size="11" fill="#3c4043" text-anchor="start" font-family="sans-serif">SpeI (523)</text><polyline points="493.15,211.88 744.80,211.88 750.80,211.88" fill="none" stroke="#c0c4c9" stroke-width="0.8"/><text x="750.80" y="214.88" font-size="11" fill="hsl(122, 48%, 45%)" text-anchor="start" font-family="sans-serif">IR/DR left</text><polyline points="574.03,242.20 744.80,242.20 750.80,242.20" fill="none" stroke="#c0c4c9" stroke-width="0.8"/><text x="750.80" y="245.20" font-size="11" fill="hsl(130, 55%, 42%)" text-anchor="start" font-family="sans-serif">CMV enhancer</text><polyline points="622.34,280.10 744.80,280.10 750.80,280.10" fill="none" stroke="#c0c4c9" stroke-width="0.8"/><text x="750.80" y="283.10" font-size="11" fill="hsl(130, 55%, 42%)" text-anchor="start" font-family="sans-serif">chicken β-actin promoter</text><polyline points="655.80,639.86 744.80,639.86 750.80,639.86" fill="none" stroke="#c0c4c9" stroke-width="0.8"/><text x="750.80" y="642.86" font-size="11" fill="#3c4043" text-anchor="start" font-family="sans-serif">NotI (3005)</text><polyline points="641.20,654.55 744.80,654.86 750.80,654.86" fill="none" stroke="#c0c4c9" stroke-width="0.8"/><text x="750.80" y="657.86" font-size="11" fill="#3c4043" text-anchor="start" font-family="sans-serif">BglII (3101)</text><polyline points="483.53,659.33 744.80,669.86 750.80,669.86" fill="none" stroke="#c0c4c9" stroke-width="0.8"/><text x="750.80" y="672.86" font-size="11" fill="#7c8087" text-anchor="start" font-family="sans-serif">SV40 ori</text><polyline points="503.56,686.00 744.80,686.00 750.80,686.00" fill="none" stroke="#c0c4c9" stroke-width="0.8"/><text x="750.80" y="689.00" font-size="11" fill="hsl(130, 55%, 42%)" text-anchor="start" font-family="sans-serif">SV40 promoter</text><polyline points="559.27,707.80 744.80,707.80 750.80,707.80" fill="none" stroke="#c0c4c9" stroke-width="0.8"/><text x="750.80" y="710.80" font-size="11" fill="#3c4043" text-anchor="start" font-family="sans-serif">PstI (3556)</text><polyline points="390.90,215.33 140.00,215.33 134.00,215.33" fill="none" stroke="#c0c4c9" stroke-width="0.8"/><text x="134.00" y="218.33" font-size="11" fill="#7c8087" text-anchor="end" font-family="sans-serif">f1 ori</text><polyline points="337.61,235.68 140.00,235.68 134.00,235.68" fill="none" stroke="#c0c4c9" stroke-width="0.8"/><text x="134.00" y="238.68" font-size="11" fill="hsl(0, 55%, 42%)" text-anchor="end" font-family="sans-serif">AmpR promoter</text><polyline points="261.24,601.44 140.00,601.44 134.00,601.44" fill="none" stroke="#c0c4c9" stroke-width="0.8"/><text x="134.00" y="604.44" font-size="11" fill="hsl(247, 48%, 45%)" text-anchor="end" font-family="sans-serif">IR/DR right</text><polyline points="315.48,651.17 140.00,651.17 134.00,651.17" fill="none" stroke="#c0c4c9" stroke-width="0.8"/><text x="134.00" y="654.17" font-size="11" fill="hsl(130, 55%, 42%)" text-anchor="end" font-family="sans-serif">SV40 poly(A) signal</text><text x="450" y="447.50" font-size="20.00" font-weight="700" text-anchor="middle" font-family="Georgia, 'Times New Roman', serif" fill="#202124">pT2 BN SVPuro CAG EGFP</text><text x="450" y="470.50" font-size="14.00" text-anchor="middle" font-family="Georgia, serif" fill="#5f6368">8,150 bp</text></svg>